<svg xmlns="http://www.w3.org/2000/svg" viewBox="0 0 960 138"><g id="Layer_2" data-name="Layer 2"><g id="svg8"><path d="M423.6,94.2c0-30-18.2-47-42.3-47-26.1,0-45.1,18.2-45.1,45.4s20,45.3,48.9,45.3a60.93,60.93,0,0,0,23.1-4.3l12.3-20.5-1.6-.9c-10.6,5.5-21.7,8.4-31.8,8.4-14.9,0-27.8-7.6-29.2-20.5h65.9l-.2-5.9ZM357.8,84c1.6-12.4,9.5-20.5,22.3-20.5,13.5,0,21.8,7.9,22,20.5ZM830,47.2c-26.1,0-45.1,18.2-45.1,45.4s20,45.3,48.9,45.3a60,60,0,0,0,23-4.3l12.3-20.5-1.6-.9c-10.6,5.5-21.7,8.4-31.8,8.4-14.9,0-27.7-7.6-29.2-20.5h65.8C875.2,66.3,857,47.2,830,47.2ZM806.4,84c1.6-12.4,9.5-20.5,22.3-20.5,13.5,0,21.8,7.9,22,20.5ZM528.2,47.2c-26.1,0-45.1,18.2-45.1,45.4s20,45.3,48.9,45.3a60.93,60.93,0,0,0,23.1-4.3l12.3-20.5-1.6-.9c-10.6,5.5-21.7,8.4-31.8,8.4-14.9,0-27.8-7.6-29.2-20.5h65.9C573.4,66.3,555.2,47.2,528.2,47.2ZM504.7,84c1.6-12.4,9.5-20.5,22.3-20.5,13.5,0,21.8,7.9,22,20.5ZM82,68.7v-.4c13.1-4,22.1-13.5,22.1-27.9,0-23.2-19.8-32-39-32H0v1.9l6.5,5.6c7.9,6.4,8.9,7.6,8.9,13.4V135.9H61.3c24.1,0,48.2-8.6,48.2-36.4C109.5,83.1,98,70.5,82,68.7ZM38.1,27.8H56.8c12.7,0,16.6,1.7,20.4,5.4,2.9,2.8,4.2,6.6,4.3,11a14,14,0,0,1-4.4,10.6c-3.7,3.6-8.9,5.4-18.3,5.4H38.1ZM59,116.3H38.1V79.6H59.9c18.4,0,27,4.7,27,18C86.9,114.4,70.6,116.3,59,116.3Zm93.4-96.2c0,7.4-6.1,13-14,13s-13.7-6.1-13.7-13,5.7-13,13.7-13S152.4,12.7,152.4,20.1ZM116.1,49.4h33.2v86.4H127.7v-68h0c0-7.1-.4-8.3-8.1-14.3l-3.4-2.7-.1-1.4ZM288,3V4.6L294.8,9c6.2,3.9,7.1,5.8,7.1,11.3V60.4h-.5c-4.5-5.6-13.1-13.1-29.3-13.1-24.7,0-41.8,19.8-41.8,45.4S246.3,138,273,138c12.1,0,23.4-4.7,29.7-15.1h.4l2.3,12.9h18.3V3ZM277.2,118.5c-15.8,0-25.4-12.4-25.4-25.9s9.6-25.9,25.4-25.9,25.4,12.4,25.4,25.9S293.1,118.5,277.2,118.5ZM736,3V4.6l3,2c10.4,6.6,11.7,8.5,11.7,19.7v34h-.5c-4.5-5.6-13.1-13.1-29.3-13.1-24.7,0-41.8,19.8-41.8,45.4s16,45.3,42.6,45.3c12.1,0,23.4-4.7,29.7-15.1h.4l2.3,12.9h18.2V3ZM726,118.5c-15.8,0-25.4-12.4-25.4-25.9s9.5-25.9,25.4-25.9,25.4,12.4,25.4,25.9S741.8,118.5,726,118.5Zm215.5-70V69.4a43.1,43.1,0,0,0-10.4-1.6c-20.3,0-23.2,17.1-23.2,21.8v46.2H886.3V72c0-10.9-.6-12.5-9.4-18.1l-5.4-3.6-.1-.9h36.4V63.1h.4c4.7-9.9,14.2-15.8,25.5-15.8A25,25,0,0,1,941.5,48.5ZM462,49.1h20.1V67.5H462v68.3H440.3V74.9c0-7.2-1.5-8.8-10-15.6l-11-8.9V49.1h21.1V33.3c0-23.4,15.3-38.3,48.4-31.7l5,18.3-1,.8c-17.3-6.8-30.7-2.4-30.7,12.6L462,49.1ZM666.7,81.2v54.6H645.1V87.7c0-9.5-2.4-21-17.5-21-14.2,0-19.8,10.4-19.8,22v47.2H586.2V72c0-10.9-.6-12.5-9.4-18.1l-5.4-3.6v-.9h16.9v.1h18.4V62.7h.4c7.1-10.6,17.9-15.3,27.5-15.3C654.9,47.2,666.7,61.2,666.7,81.2ZM223.6,118.4l.7.4L213.6,136c-17.6,4.8-37.4-.3-37.4-28.5V72.4c0-5.6-.9-5.3-13-15.3l-7.8-6.8v-1h21l7.9-25H198v25h23.1V67.6H198v39.2C197.9,122.5,208.5,122.9,223.6,118.4Z"/><path d="M946.3,6.4H941V22.7h.6V15.1h5.1v.1l4.9,7.6h.7l-5.1-7.7h.2a7.49,7.49,0,0,0,1.6-.4,3.53,3.53,0,0,0,1.3-.8,3,3,0,0,0,.9-1.3,4.84,4.84,0,0,0,.3-1.8,3.94,3.94,0,0,0-1.3-3.2Q949.15,6.4,946.3,6.4Zm4.8,4.3a3.94,3.94,0,0,1-.5,2,2.76,2.76,0,0,1-1.3,1.1,7.76,7.76,0,0,1-1.8.5,10.87,10.87,0,0,1-1.8.1h-4.1V6.9h4.7a11,11,0,0,1,1.8.2,4.42,4.42,0,0,1,1.6.6,3.18,3.18,0,0,1,1.1,1.2A4.5,4.5,0,0,1,951.1,10.7Z"/><path d="M958.9,19.9a14.8,14.8,0,0,0,0-11.2,13.94,13.94,0,0,0-3.1-4.5,15.7,15.7,0,0,0-4.5-3.1,14.8,14.8,0,0,0-11.2,0,15.7,15.7,0,0,0-4.5,3.1,15.7,15.7,0,0,0-3.1,4.5,14.8,14.8,0,0,0,0,11.2,13.94,13.94,0,0,0,3.1,4.5,13.66,13.66,0,0,0,4.5,3,14.8,14.8,0,0,0,11.2,0,14.19,14.19,0,0,0,4.5-3A15.7,15.7,0,0,0,958.9,19.9Zm-7.8,7a14,14,0,0,1-5.3,1.1,13.22,13.22,0,0,1-5.3-1.1,14.64,14.64,0,0,1-4.4-2.9,13.49,13.49,0,0,1-2.9-4.4,14.08,14.08,0,0,1-1.1-5.4,13.22,13.22,0,0,1,1.1-5.3,14.64,14.64,0,0,1,2.9-4.4,13.49,13.49,0,0,1,4.4-2.9A14,14,0,0,1,945.8.5a13.22,13.22,0,0,1,5.3,1.1,13,13,0,0,1,4.3,2.9,13.49,13.49,0,0,1,2.9,4.4,14,14,0,0,1,1.1,5.3,14.08,14.08,0,0,1-1.1,5.4,16,16,0,0,1-2.9,4.4A14.17,14.17,0,0,1,951.1,26.9Z"/></g></g></svg>