<svg xmlns="http://www.w3.org/2000/svg" xmlns:xlink="http://www.w3.org/1999/xlink" width="500" zoomAndPan="magnify" viewBox="0 0 375 374.999991" height="500" preserveAspectRatio="xMidYMid meet" version="1.0"><defs><g/><clipPath id="7eb7b96ff0"><path d="M 36.609375 139.140625 L 132.894531 139.140625 L 132.894531 235.859375 L 36.609375 235.859375 Z M 36.609375 139.140625 " clip-rule="nonzero"/></clipPath><clipPath id="5649dbafb1"><path d="M 57.085938 163.292969 L 112.5 163.292969 L 112.5 211.707031 L 57.085938 211.707031 Z M 57.085938 163.292969 " clip-rule="nonzero"/></clipPath><clipPath id="bd52670392"><path d="M 84.753906 163.292969 L 112.417969 211.707031 L 57.085938 211.707031 Z M 84.753906 163.292969 " clip-rule="nonzero"/></clipPath></defs><g clip-path="url(#7eb7b96ff0)"><path fill="#ff0000" d="M 36.609375 139.140625 L 132.894531 139.140625 L 132.894531 235.800781 L 36.609375 235.800781 Z M 36.609375 139.140625 " fill-opacity="1" fill-rule="nonzero"/></g><g fill="#ffffff" fill-opacity="1"><g transform="translate(44.712006, 209.57122)"><g><path d="M 18.375 0.40625 C 15.394531 0.40625 12.71875 -0.078125 10.34375 -1.046875 C 7.976562 -2.015625 6.085938 -3.445312 4.671875 -5.34375 C 3.265625 -7.25 2.519531 -9.539062 2.4375 -12.21875 L 13.03125 -12.21875 C 13.1875 -10.695312 13.707031 -9.539062 14.59375 -8.75 C 15.488281 -7.957031 16.65625 -7.5625 18.09375 -7.5625 C 19.5625 -7.5625 20.722656 -7.898438 21.578125 -8.578125 C 22.429688 -9.253906 22.859375 -10.195312 22.859375 -11.40625 C 22.859375 -12.40625 22.515625 -13.234375 21.828125 -13.890625 C 21.148438 -14.554688 20.316406 -15.101562 19.328125 -15.53125 C 18.347656 -15.957031 16.945312 -16.441406 15.125 -16.984375 C 12.488281 -17.796875 10.335938 -18.609375 8.671875 -19.421875 C 7.003906 -20.234375 5.566406 -21.4375 4.359375 -23.03125 C 3.160156 -24.625 2.5625 -26.695312 2.5625 -29.25 C 2.5625 -33.050781 3.9375 -36.023438 6.6875 -38.171875 C 9.4375 -40.328125 13.023438 -41.40625 17.453125 -41.40625 C 21.941406 -41.40625 25.5625 -40.328125 28.3125 -38.171875 C 31.070312 -36.023438 32.546875 -33.03125 32.734375 -29.1875 L 21.984375 -29.1875 C 21.898438 -30.507812 21.410156 -31.546875 20.515625 -32.296875 C 19.628906 -33.054688 18.488281 -33.4375 17.09375 -33.4375 C 15.894531 -33.4375 14.925781 -33.113281 14.1875 -32.46875 C 13.445312 -31.832031 13.078125 -30.914062 13.078125 -29.71875 C 13.078125 -28.394531 13.695312 -27.363281 14.9375 -26.625 C 16.1875 -25.894531 18.128906 -25.101562 20.765625 -24.25 C 23.398438 -23.351562 25.539062 -22.5 27.1875 -21.6875 C 28.832031 -20.875 30.253906 -19.691406 31.453125 -18.140625 C 32.660156 -16.585938 33.265625 -14.59375 33.265625 -12.15625 C 33.265625 -9.832031 32.671875 -7.71875 31.484375 -5.8125 C 30.304688 -3.914062 28.59375 -2.40625 26.34375 -1.28125 C 24.09375 -0.15625 21.4375 0.40625 18.375 0.40625 Z M 18.375 0.40625 "/></g></g></g><g fill="#ffffff" fill-opacity="1"><g transform="translate(80.471748, 209.57122)"><g><path d="M 1.921875 -20.46875 C 1.921875 -24.5 2.789062 -28.09375 4.53125 -31.25 C 6.28125 -34.414062 8.710938 -36.878906 11.828125 -38.640625 C 14.953125 -40.410156 18.492188 -41.296875 22.453125 -41.296875 C 27.296875 -41.296875 31.441406 -40.015625 34.890625 -37.453125 C 38.335938 -34.890625 40.644531 -31.398438 41.8125 -26.984375 L 30.875 -26.984375 C 30.0625 -28.691406 28.910156 -29.988281 27.421875 -30.875 C 25.929688 -31.769531 24.234375 -32.21875 22.328125 -32.21875 C 19.265625 -32.21875 16.78125 -31.148438 14.875 -29.015625 C 12.976562 -26.890625 12.03125 -24.039062 12.03125 -20.46875 C 12.03125 -16.90625 12.976562 -14.054688 14.875 -11.921875 C 16.78125 -9.785156 19.265625 -8.71875 22.328125 -8.71875 C 24.234375 -8.71875 25.929688 -9.164062 27.421875 -10.0625 C 28.910156 -10.957031 30.0625 -12.253906 30.875 -13.953125 L 41.8125 -13.953125 C 40.644531 -9.535156 38.335938 -6.054688 34.890625 -3.515625 C 31.441406 -0.972656 27.296875 0.296875 22.453125 0.296875 C 18.492188 0.296875 14.953125 -0.582031 11.828125 -2.34375 C 8.710938 -4.113281 6.28125 -6.566406 4.53125 -9.703125 C 2.789062 -12.847656 1.921875 -16.4375 1.921875 -20.46875 Z M 1.921875 -20.46875 "/></g></g></g><g clip-path="url(#5649dbafb1)"><g clip-path="url(#bd52670392)"><path fill="#000000" d="M 57.085938 163.292969 L 112.5 163.292969 L 112.5 211.707031 L 57.085938 211.707031 Z M 57.085938 163.292969 " fill-opacity="1" fill-rule="nonzero"/></g></g><g fill="#000000" fill-opacity="1"><g transform="translate(141.238531, 184.449819)"><g><path d="M 11.96875 0.28125 C 10.125 0.28125 8.472656 -0.046875 7.015625 -0.703125 C 5.554688 -1.359375 4.410156 -2.269531 3.578125 -3.4375 C 2.742188 -4.601562 2.316406 -5.945312 2.296875 -7.46875 L 6.1875 -7.46875 C 6.320312 -6.15625 6.863281 -5.050781 7.8125 -4.15625 C 8.769531 -3.257812 10.15625 -2.8125 11.96875 -2.8125 C 13.71875 -2.8125 15.09375 -3.242188 16.09375 -4.109375 C 17.101562 -4.984375 17.609375 -6.101562 17.609375 -7.46875 C 17.609375 -8.539062 17.3125 -9.410156 16.71875 -10.078125 C 16.125 -10.753906 15.382812 -11.265625 14.5 -11.609375 C 13.625 -11.960938 12.4375 -12.335938 10.9375 -12.734375 C 9.082031 -13.222656 7.597656 -13.707031 6.484375 -14.1875 C 5.378906 -14.664062 4.429688 -15.421875 3.640625 -16.453125 C 2.847656 -17.484375 2.453125 -18.867188 2.453125 -20.609375 C 2.453125 -22.140625 2.835938 -23.492188 3.609375 -24.671875 C 4.390625 -25.847656 5.484375 -26.757812 6.890625 -27.40625 C 8.296875 -28.050781 9.910156 -28.375 11.734375 -28.375 C 14.359375 -28.375 16.507812 -27.71875 18.1875 -26.40625 C 19.863281 -25.09375 20.804688 -23.347656 21.015625 -21.171875 L 17 -21.171875 C 16.863281 -22.242188 16.300781 -23.1875 15.3125 -24 C 14.320312 -24.820312 13.007812 -25.234375 11.375 -25.234375 C 9.84375 -25.234375 8.59375 -24.835938 7.625 -24.046875 C 6.664062 -23.253906 6.1875 -22.148438 6.1875 -20.734375 C 6.1875 -19.710938 6.472656 -18.878906 7.046875 -18.234375 C 7.628906 -17.597656 8.34375 -17.113281 9.1875 -16.78125 C 10.03125 -16.445312 11.210938 -16.066406 12.734375 -15.640625 C 14.585938 -15.128906 16.078125 -14.625 17.203125 -14.125 C 18.328125 -13.625 19.289062 -12.859375 20.09375 -11.828125 C 20.894531 -10.796875 21.296875 -9.398438 21.296875 -7.640625 C 21.296875 -6.273438 20.929688 -4.988281 20.203125 -3.78125 C 19.484375 -2.570312 18.414062 -1.59375 17 -0.84375 C 15.582031 -0.09375 13.90625 0.28125 11.96875 0.28125 Z M 11.96875 0.28125 "/></g></g></g><g fill="#000000" fill-opacity="1"><g transform="translate(164.818979, 184.449819)"><g><path d="M 14.03125 -22.421875 C 15.6875 -22.421875 17.179688 -22.066406 18.515625 -21.359375 C 19.859375 -20.648438 20.910156 -19.582031 21.671875 -18.15625 C 22.441406 -16.738281 22.828125 -15.015625 22.828125 -12.984375 L 22.828125 0 L 19.203125 0 L 19.203125 -12.453125 C 19.203125 -14.648438 18.65625 -16.332031 17.5625 -17.5 C 16.46875 -18.664062 14.96875 -19.25 13.0625 -19.25 C 11.132812 -19.25 9.597656 -18.644531 8.453125 -17.4375 C 7.316406 -16.238281 6.75 -14.484375 6.75 -12.171875 L 6.75 0 L 3.09375 0 L 3.09375 -29.734375 L 6.75 -29.734375 L 6.75 -18.890625 C 7.476562 -20.015625 8.476562 -20.882812 9.75 -21.5 C 11.019531 -22.113281 12.445312 -22.421875 14.03125 -22.421875 Z M 14.03125 -22.421875 "/></g></g></g><g fill="#000000" fill-opacity="1"><g transform="translate(190.528499, 184.449819)"><g><path d="M 23.1875 -11.859375 C 23.1875 -11.160156 23.144531 -10.421875 23.0625 -9.640625 L 5.46875 -9.640625 C 5.601562 -7.472656 6.34375 -5.78125 7.6875 -4.5625 C 9.039062 -3.34375 10.6875 -2.734375 12.625 -2.734375 C 14.195312 -2.734375 15.515625 -3.097656 16.578125 -3.828125 C 17.640625 -4.566406 18.382812 -5.554688 18.8125 -6.796875 L 22.75 -6.796875 C 22.15625 -4.671875 20.972656 -2.945312 19.203125 -1.625 C 17.441406 -0.300781 15.25 0.359375 12.625 0.359375 C 10.53125 0.359375 8.660156 -0.109375 7.015625 -1.046875 C 5.367188 -1.984375 4.078125 -3.316406 3.140625 -5.046875 C 2.203125 -6.773438 1.734375 -8.773438 1.734375 -11.046875 C 1.734375 -13.328125 2.1875 -15.320312 3.09375 -17.03125 C 4 -18.75 5.273438 -20.070312 6.921875 -21 C 8.578125 -21.925781 10.476562 -22.390625 12.625 -22.390625 C 14.707031 -22.390625 16.550781 -21.929688 18.15625 -21.015625 C 19.769531 -20.109375 21.007812 -18.859375 21.875 -17.265625 C 22.75 -15.671875 23.1875 -13.867188 23.1875 -11.859375 Z M 19.40625 -12.625 C 19.40625 -14.007812 19.097656 -15.203125 18.484375 -16.203125 C 17.867188 -17.210938 17.03125 -17.976562 15.96875 -18.5 C 14.914062 -19.03125 13.742188 -19.296875 12.453125 -19.296875 C 10.609375 -19.296875 9.035156 -18.703125 7.734375 -17.515625 C 6.429688 -16.335938 5.6875 -14.707031 5.5 -12.625 Z M 19.40625 -12.625 "/></g></g></g><g fill="#000000" fill-opacity="1"><g transform="translate(215.434593, 184.449819)"><g><path d="M 4.984375 -25.59375 C 4.285156 -25.59375 3.691406 -25.832031 3.203125 -26.3125 C 2.722656 -26.800781 2.484375 -27.394531 2.484375 -28.09375 C 2.484375 -28.789062 2.722656 -29.378906 3.203125 -29.859375 C 3.691406 -30.335938 4.285156 -30.578125 4.984375 -30.578125 C 5.648438 -30.578125 6.21875 -30.335938 6.6875 -29.859375 C 7.15625 -29.378906 7.390625 -28.789062 7.390625 -28.09375 C 7.390625 -27.394531 7.15625 -26.800781 6.6875 -26.3125 C 6.21875 -25.832031 5.648438 -25.59375 4.984375 -25.59375 Z M 6.75 -22.015625 L 6.75 0 L 3.09375 0 L 3.09375 -22.015625 Z M 6.75 -22.015625 "/></g></g></g><g fill="#000000" fill-opacity="1"><g transform="translate(225.316692, 184.449819)"><g><path d="M 15.390625 0 L 6.75 -9.71875 L 6.75 0 L 3.09375 0 L 3.09375 -29.734375 L 6.75 -29.734375 L 6.75 -12.25 L 15.234375 -22.015625 L 20.328125 -22.015625 L 9.96875 -11.046875 L 20.375 0 Z M 15.390625 0 "/></g></g></g><g fill="#000000" fill-opacity="1"><g transform="translate(246.004821, 184.449819)"><g><path d="M 14.03125 -22.421875 C 15.6875 -22.421875 17.179688 -22.066406 18.515625 -21.359375 C 19.859375 -20.648438 20.910156 -19.582031 21.671875 -18.15625 C 22.441406 -16.738281 22.828125 -15.015625 22.828125 -12.984375 L 22.828125 0 L 19.203125 0 L 19.203125 -12.453125 C 19.203125 -14.648438 18.65625 -16.332031 17.5625 -17.5 C 16.46875 -18.664062 14.96875 -19.25 13.0625 -19.25 C 11.132812 -19.25 9.597656 -18.644531 8.453125 -17.4375 C 7.316406 -16.238281 6.75 -14.484375 6.75 -12.171875 L 6.75 0 L 3.09375 0 L 3.09375 -29.734375 L 6.75 -29.734375 L 6.75 -18.890625 C 7.476562 -20.015625 8.476562 -20.882812 9.75 -21.5 C 11.019531 -22.113281 12.445312 -22.421875 14.03125 -22.421875 Z M 14.03125 -22.421875 "/></g></g></g><g fill="#000000" fill-opacity="1"><g transform="translate(141.238531, 222.361816)"><g><path d="M 6.75 -28.015625 L 6.75 0 L 3.09375 0 L 3.09375 -28.015625 Z M 6.75 -28.015625 "/></g></g></g><g fill="#000000" fill-opacity="1"><g transform="translate(151.120631, 222.361816)"><g><path d="M 13.828125 -22.421875 C 16.503906 -22.421875 18.671875 -21.609375 20.328125 -19.984375 C 21.992188 -18.367188 22.828125 -16.035156 22.828125 -12.984375 L 22.828125 0 L 19.203125 0 L 19.203125 -12.453125 C 19.203125 -14.648438 18.65625 -16.332031 17.5625 -17.5 C 16.46875 -18.664062 14.96875 -19.25 13.0625 -19.25 C 11.132812 -19.25 9.597656 -18.644531 8.453125 -17.4375 C 7.316406 -16.238281 6.75 -14.484375 6.75 -12.171875 L 6.75 0 L 3.09375 0 L 3.09375 -22.015625 L 6.75 -22.015625 L 6.75 -18.890625 C 7.476562 -20.015625 8.460938 -20.882812 9.703125 -21.5 C 10.953125 -22.113281 12.328125 -22.421875 13.828125 -22.421875 Z M 13.828125 -22.421875 "/></g></g></g><g fill="#000000" fill-opacity="1"><g transform="translate(176.830151, 222.361816)"><g><path d="M 1.734375 -11.09375 C 1.734375 -13.34375 2.1875 -15.316406 3.09375 -17.015625 C 4 -18.722656 5.25 -20.046875 6.84375 -20.984375 C 8.445312 -21.921875 10.238281 -22.390625 12.21875 -22.390625 C 13.925781 -22.390625 15.515625 -21.992188 16.984375 -21.203125 C 18.460938 -20.410156 19.59375 -19.367188 20.375 -18.078125 L 20.375 -29.734375 L 24.078125 -29.734375 L 24.078125 0 L 20.375 0 L 20.375 -4.140625 C 19.65625 -2.828125 18.582031 -1.75 17.15625 -0.90625 C 15.738281 -0.0625 14.078125 0.359375 12.171875 0.359375 C 10.222656 0.359375 8.445312 -0.117188 6.84375 -1.078125 C 5.25 -2.046875 4 -3.398438 3.09375 -5.140625 C 2.1875 -6.878906 1.734375 -8.863281 1.734375 -11.09375 Z M 20.375 -11.046875 C 20.375 -12.710938 20.035156 -14.160156 19.359375 -15.390625 C 18.691406 -16.617188 17.789062 -17.5625 16.65625 -18.21875 C 15.519531 -18.875 14.269531 -19.203125 12.90625 -19.203125 C 11.53125 -19.203125 10.28125 -18.878906 9.15625 -18.234375 C 8.03125 -17.597656 7.132812 -16.660156 6.46875 -15.421875 C 5.800781 -14.191406 5.46875 -12.75 5.46875 -11.09375 C 5.46875 -9.40625 5.800781 -7.9375 6.46875 -6.6875 C 7.132812 -5.445312 8.03125 -4.5 9.15625 -3.84375 C 10.28125 -3.1875 11.53125 -2.859375 12.90625 -2.859375 C 14.269531 -2.859375 15.519531 -3.1875 16.65625 -3.84375 C 17.789062 -4.5 18.691406 -5.445312 19.359375 -6.6875 C 20.035156 -7.9375 20.375 -9.390625 20.375 -11.046875 Z M 20.375 -11.046875 "/></g></g></g><g fill="#000000" fill-opacity="1"><g transform="translate(203.98583, 222.361816)"><g><path d="M 22.625 -22.015625 L 22.625 0 L 18.96875 0 L 18.96875 -3.25 C 18.269531 -2.125 17.296875 -1.242188 16.046875 -0.609375 C 14.804688 0.015625 13.4375 0.328125 11.9375 0.328125 C 10.21875 0.328125 8.675781 -0.0234375 7.3125 -0.734375 C 5.945312 -1.453125 4.867188 -2.519531 4.078125 -3.9375 C 3.285156 -5.351562 2.890625 -7.082031 2.890625 -9.125 L 2.890625 -22.015625 L 6.515625 -22.015625 L 6.515625 -9.609375 C 6.515625 -7.429688 7.0625 -5.757812 8.15625 -4.59375 C 9.257812 -3.4375 10.757812 -2.859375 12.65625 -2.859375 C 14.613281 -2.859375 16.15625 -3.457031 17.28125 -4.65625 C 18.40625 -5.863281 18.96875 -7.617188 18.96875 -9.921875 L 18.96875 -22.015625 Z M 22.625 -22.015625 "/></g></g></g><g fill="#000000" fill-opacity="1"><g transform="translate(229.695351, 222.361816)"><g><path d="M 10.890625 0.359375 C 9.203125 0.359375 7.6875 0.0703125 6.34375 -0.5 C 5.007812 -1.070312 3.953125 -1.875 3.171875 -2.90625 C 2.398438 -3.9375 1.972656 -5.125 1.890625 -6.46875 L 5.671875 -6.46875 C 5.773438 -5.375 6.285156 -4.476562 7.203125 -3.78125 C 8.128906 -3.082031 9.34375 -2.734375 10.84375 -2.734375 C 12.238281 -2.734375 13.335938 -3.039062 14.140625 -3.65625 C 14.953125 -4.269531 15.359375 -5.046875 15.359375 -5.984375 C 15.359375 -6.953125 14.925781 -7.671875 14.0625 -8.140625 C 13.207031 -8.609375 11.882812 -9.070312 10.09375 -9.53125 C 8.457031 -9.957031 7.125 -10.390625 6.09375 -10.828125 C 5.0625 -11.273438 4.175781 -11.929688 3.4375 -12.796875 C 2.695312 -13.671875 2.328125 -14.816406 2.328125 -16.234375 C 2.328125 -17.359375 2.660156 -18.390625 3.328125 -19.328125 C 4.003906 -20.265625 4.957031 -21.007812 6.1875 -21.5625 C 7.414062 -22.113281 8.820312 -22.390625 10.40625 -22.390625 C 12.84375 -22.390625 14.8125 -21.769531 16.3125 -20.53125 C 17.8125 -19.300781 18.617188 -17.613281 18.734375 -15.46875 L 15.078125 -15.46875 C 14.992188 -16.625 14.53125 -17.550781 13.6875 -18.25 C 12.84375 -18.945312 11.707031 -19.296875 10.28125 -19.296875 C 8.96875 -19.296875 7.921875 -19.015625 7.140625 -18.453125 C 6.367188 -17.890625 5.984375 -17.148438 5.984375 -16.234375 C 5.984375 -15.515625 6.21875 -14.921875 6.6875 -14.453125 C 7.15625 -13.984375 7.742188 -13.609375 8.453125 -13.328125 C 9.171875 -13.046875 10.15625 -12.726562 11.40625 -12.375 C 12.988281 -11.945312 14.273438 -11.523438 15.265625 -11.109375 C 16.265625 -10.691406 17.117188 -10.066406 17.828125 -9.234375 C 18.535156 -8.410156 18.898438 -7.328125 18.921875 -5.984375 C 18.921875 -4.773438 18.585938 -3.6875 17.921875 -2.71875 C 17.253906 -1.757812 16.3125 -1.003906 15.09375 -0.453125 C 13.875 0.0859375 12.472656 0.359375 10.890625 0.359375 Z M 10.890625 0.359375 "/></g></g></g><g fill="#000000" fill-opacity="1"><g transform="translate(250.664675, 222.361816)"><g><path d="M 7.5625 -19.015625 L 7.5625 -6.03125 C 7.5625 -4.957031 7.785156 -4.195312 8.234375 -3.75 C 8.691406 -3.3125 9.484375 -3.09375 10.609375 -3.09375 L 13.296875 -3.09375 L 13.296875 0 L 10 0 C 7.96875 0 6.441406 -0.46875 5.421875 -1.40625 C 4.398438 -2.34375 3.890625 -3.882812 3.890625 -6.03125 L 3.890625 -19.015625 L 1.046875 -19.015625 L 1.046875 -22.015625 L 3.890625 -22.015625 L 3.890625 -27.5625 L 7.5625 -27.5625 L 7.5625 -22.015625 L 13.296875 -22.015625 L 13.296875 -19.015625 Z M 7.5625 -19.015625 "/></g></g></g><g fill="#000000" fill-opacity="1"><g transform="translate(265.286961, 222.361816)"><g><path d="M 6.75 -18.453125 C 7.394531 -19.703125 8.3125 -20.675781 9.5 -21.375 C 10.695312 -22.070312 12.148438 -22.421875 13.859375 -22.421875 L 13.859375 -18.640625 L 12.90625 -18.640625 C 8.800781 -18.640625 6.75 -16.414062 6.75 -11.96875 L 6.75 0 L 3.09375 0 L 3.09375 -22.015625 L 6.75 -22.015625 Z M 6.75 -18.453125 "/></g></g></g><g fill="#000000" fill-opacity="1"><g transform="translate(280.270794, 222.361816)"><g><path d="M 4.984375 -25.59375 C 4.285156 -25.59375 3.691406 -25.832031 3.203125 -26.3125 C 2.722656 -26.800781 2.484375 -27.394531 2.484375 -28.09375 C 2.484375 -28.789062 2.722656 -29.378906 3.203125 -29.859375 C 3.691406 -30.335938 4.285156 -30.578125 4.984375 -30.578125 C 5.648438 -30.578125 6.21875 -30.335938 6.6875 -29.859375 C 7.15625 -29.378906 7.390625 -28.789062 7.390625 -28.09375 C 7.390625 -27.394531 7.15625 -26.800781 6.6875 -26.3125 C 6.21875 -25.832031 5.648438 -25.59375 4.984375 -25.59375 Z M 6.75 -22.015625 L 6.75 0 L 3.09375 0 L 3.09375 -22.015625 Z M 6.75 -22.015625 "/></g></g></g><g fill="#000000" fill-opacity="1"><g transform="translate(290.152894, 222.361816)"><g><path d="M 23.1875 -11.859375 C 23.1875 -11.160156 23.144531 -10.421875 23.0625 -9.640625 L 5.46875 -9.640625 C 5.601562 -7.472656 6.34375 -5.78125 7.6875 -4.5625 C 9.039062 -3.34375 10.6875 -2.734375 12.625 -2.734375 C 14.195312 -2.734375 15.515625 -3.097656 16.578125 -3.828125 C 17.640625 -4.566406 18.382812 -5.554688 18.8125 -6.796875 L 22.75 -6.796875 C 22.15625 -4.671875 20.972656 -2.945312 19.203125 -1.625 C 17.441406 -0.300781 15.25 0.359375 12.625 0.359375 C 10.53125 0.359375 8.660156 -0.109375 7.015625 -1.046875 C 5.367188 -1.984375 4.078125 -3.316406 3.140625 -5.046875 C 2.203125 -6.773438 1.734375 -8.773438 1.734375 -11.046875 C 1.734375 -13.328125 2.1875 -15.320312 3.09375 -17.03125 C 4 -18.75 5.273438 -20.070312 6.921875 -21 C 8.578125 -21.925781 10.476562 -22.390625 12.625 -22.390625 C 14.707031 -22.390625 16.550781 -21.929688 18.15625 -21.015625 C 19.769531 -20.109375 21.007812 -18.859375 21.875 -17.265625 C 22.75 -15.671875 23.1875 -13.867188 23.1875 -11.859375 Z M 19.40625 -12.625 C 19.40625 -14.007812 19.097656 -15.203125 18.484375 -16.203125 C 17.867188 -17.210938 17.03125 -17.976562 15.96875 -18.5 C 14.914062 -19.03125 13.742188 -19.296875 12.453125 -19.296875 C 10.609375 -19.296875 9.035156 -18.703125 7.734375 -17.515625 C 6.429688 -16.335938 5.6875 -14.707031 5.5 -12.625 Z M 19.40625 -12.625 "/></g></g></g><g fill="#000000" fill-opacity="1"><g transform="translate(315.058988, 222.361816)"><g><path d="M 10.890625 0.359375 C 9.203125 0.359375 7.6875 0.0703125 6.34375 -0.5 C 5.007812 -1.070312 3.953125 -1.875 3.171875 -2.90625 C 2.398438 -3.9375 1.972656 -5.125 1.890625 -6.46875 L 5.671875 -6.46875 C 5.773438 -5.375 6.285156 -4.476562 7.203125 -3.78125 C 8.128906 -3.082031 9.34375 -2.734375 10.84375 -2.734375 C 12.238281 -2.734375 13.335938 -3.039062 14.140625 -3.65625 C 14.953125 -4.269531 15.359375 -5.046875 15.359375 -5.984375 C 15.359375 -6.953125 14.925781 -7.671875 14.0625 -8.140625 C 13.207031 -8.609375 11.882812 -9.070312 10.09375 -9.53125 C 8.457031 -9.957031 7.125 -10.390625 6.09375 -10.828125 C 5.0625 -11.273438 4.175781 -11.929688 3.4375 -12.796875 C 2.695312 -13.671875 2.328125 -14.816406 2.328125 -16.234375 C 2.328125 -17.359375 2.660156 -18.390625 3.328125 -19.328125 C 4.003906 -20.265625 4.957031 -21.007812 6.1875 -21.5625 C 7.414062 -22.113281 8.820312 -22.390625 10.40625 -22.390625 C 12.84375 -22.390625 14.8125 -21.769531 16.3125 -20.53125 C 17.8125 -19.300781 18.617188 -17.613281 18.734375 -15.46875 L 15.078125 -15.46875 C 14.992188 -16.625 14.53125 -17.550781 13.6875 -18.25 C 12.84375 -18.945312 11.707031 -19.296875 10.28125 -19.296875 C 8.96875 -19.296875 7.921875 -19.015625 7.140625 -18.453125 C 6.367188 -17.890625 5.984375 -17.148438 5.984375 -16.234375 C 5.984375 -15.515625 6.21875 -14.921875 6.6875 -14.453125 C 7.15625 -13.984375 7.742188 -13.609375 8.453125 -13.328125 C 9.171875 -13.046875 10.15625 -12.726562 11.40625 -12.375 C 12.988281 -11.945312 14.273438 -11.523438 15.265625 -11.109375 C 16.265625 -10.691406 17.117188 -10.066406 17.828125 -9.234375 C 18.535156 -8.410156 18.898438 -7.328125 18.921875 -5.984375 C 18.921875 -4.773438 18.585938 -3.6875 17.921875 -2.71875 C 17.253906 -1.757812 16.3125 -1.003906 15.09375 -0.453125 C 13.875 0.0859375 12.472656 0.359375 10.890625 0.359375 Z M 10.890625 0.359375 "/></g></g></g></svg>