<svg xmlns="http://www.w3.org/2000/svg" viewBox="0 0 668.7 174.3"><defs><style>.cls-1{fill:#fcbb2f;}.cls-1,.cls-2{fill-rule:evenodd;}</style></defs><g id="Layer_2" data-name="Layer 2"><g id="svg8"><path class="cls-1" d="M112.3,135.3a51.91,51.91,0,0,1-73.2,0,51.42,51.42,0,0,1,0-73,51.91,51.91,0,0,1,73.2,0,51.66,51.66,0,0,1,0,73ZM75.7,23.3C34,23.3,0,57.2,0,98.8a75.67,75.67,0,0,0,75.7,75.5c41.7,0,75.7-33.9,75.7-75.5A75.8,75.8,0,0,0,75.7,23.3Z"/><polygon class="cls-1" points="158.1 17.6 164 17.6 164 11.7 158.1 11.7 158.1 17.6"/><polygon class="cls-1" points="158.1 0 158.1 5.9 164 5.9 164 0 158.1 0"/><polygon class="cls-1" points="147 17.5 141.5 17.5 141.5 23.3 147 23.3 147 17.5"/><polygon class="cls-2" points="136.1 28.8 130.6 28.8 130.6 34.3 136.1 34.3 136.1 28.8"/><polygon class="cls-2" points="147 28.8 153.2 28.8 153.2 23.3 147 23.3 147 28.8"/><polygon class="cls-2" points="130.6 23.5 125.1 23.5 125.1 28.8 130.6 28.8 130.6 23.5"/><polygon class="cls-2" points="141.5 34.3 147 34.3 147 28.8 141.5 28.8 141.5 34.3"/><polygon class="cls-2" points="152.3 11.7 158.1 11.7 158.1 5.9 152.3 5.9 152.3 11.7"/><polygon class="cls-2" points="152.3 11.7 141.5 11.7 141.5 17.5 152.3 17.5 152.3 11.7"/><polygon class="cls-2" points="141.5 17.5 136.1 17.5 136.1 28.8 141.5 28.8 141.5 17.5"/><path class="cls-2" d="M136.1,39.9h-5.5V34.3h-9.2v4h-4.9v4.9H122v5.5h-5.5V43.2h-5.9v8.6h-5.5v5.5h-3.7v5.5h-4C92.9,69.5,81.5,90.6,78,99.1,65.6,81.9,56,75,48.4,72.6c-4.1-1.2-9,3.2-2.2,10.2,15.6,17.1,20.5,31.3,25.3,42.6,2.5,6,13.8,6.9,16,.8,4.8-12.8,11.8-27.3,20-39.1V80.9h4.4V75.4h4.6V69H122V62.8h-5.6V57.2H122v5.6h5.5V57.2h4.4V50.5h4.9V45.9h4.8V34.3h-5.4v5.6Z"/><path class="cls-2" d="M535.9,119.4a25.56,25.56,0,0,1-3.3,8.5,18.7,18.7,0,0,1-6.4,6.1,22.46,22.46,0,0,1-19.8,0,17.55,17.55,0,0,1-6.3-6.1,24.32,24.32,0,0,1-3.3-8.5,50.4,50.4,0,0,1-1-9.6,45,45,0,0,1,1-9.7,26.11,26.11,0,0,1,3.3-8.6,19.35,19.35,0,0,1,6.3-6.1,18.86,18.86,0,0,1,9.9-2.4,19.48,19.48,0,0,1,10,2.4,18.73,18.73,0,0,1,6.4,6.1,23.38,23.38,0,0,1,3.3,8.6,51.45,51.45,0,0,1,1,9.7,74.14,74.14,0,0,1-1.1,9.6Zm10.3-40a37.4,37.4,0,0,0-13-8.4,46.49,46.49,0,0,0-17.1-3,45.58,45.58,0,0,0-17,3,37,37,0,0,0-12.9,8.4,36.22,36.22,0,0,0-8.3,13.1,47,47,0,0,0-2.9,17.2,49.24,49.24,0,0,0,2.9,17.2,35,35,0,0,0,8.3,13,36.27,36.27,0,0,0,12.9,8.3,47.71,47.71,0,0,0,17,2.9,48.67,48.67,0,0,0,17.1-2.9,35.79,35.79,0,0,0,21.3-21.3,52.46,52.46,0,0,0,0-34.4,36.22,36.22,0,0,0-8.3-13.1Z"/><path class="cls-2" d="M635.7,76.9a20.63,20.63,0,0,0-8.7-6.4q-5.55-2.4-14.4-2.4a31,31,0,0,0-13.5,3.1,27.74,27.74,0,0,0-11.7,9.9l-.2.4a.55.55,0,0,1-.5.3.27.27,0,0,1-.3-.3V70.3H566.9v78.9h20.6V107.8c0-8.4,1.4-14.5,4.2-18.2s7.6-5.7,13.9-5.7c5.6,0,9.6,1.8,11.9,5.3s3.3,8.6,3.3,15.3v44.7h20.6V100.5A63.13,63.13,0,0,0,640.1,87a23.92,23.92,0,0,0-4.4-10.1Z"/><polygon class="cls-2" points="253.6 116.5 205.1 39.8 182.8 39.8 182.8 149.4 203.3 149.4 203.3 72.3 204.9 74.9 251.6 149.4 274.1 149.4 274.1 39.8 253.6 39.8 253.6 116.5"/><path class="cls-2" d="M344.3,119.4a25.56,25.56,0,0,1-3.3,8.5,18.7,18.7,0,0,1-6.4,6.1,22.46,22.46,0,0,1-19.8,0,17.55,17.55,0,0,1-6.3-6.1,24.32,24.32,0,0,1-3.3-8.5,50.4,50.4,0,0,1-1-9.6,45,45,0,0,1,1-9.7,26.11,26.11,0,0,1,3.3-8.6,19.35,19.35,0,0,1,6.3-6.1A19.5,19.5,0,0,1,341,91.5a23.38,23.38,0,0,1,3.3,8.6,51.45,51.45,0,0,1,1,9.7,50.4,50.4,0,0,1-1,9.6Zm10.4-40a37.4,37.4,0,0,0-13-8.4,46.49,46.49,0,0,0-17.1-3,45.58,45.58,0,0,0-17,3,37,37,0,0,0-12.9,8.4,36.22,36.22,0,0,0-8.3,13.1,47,47,0,0,0-2.9,17.2,49.24,49.24,0,0,0,2.9,17.2,35,35,0,0,0,8.3,13,36.27,36.27,0,0,0,12.9,8.3,47.71,47.71,0,0,0,17,2.9,48.67,48.67,0,0,0,17.1-2.9A35.79,35.79,0,0,0,363,126.9a52.46,52.46,0,0,0,0-34.4,39.1,39.1,0,0,0-8.3-13.1Z"/><path class="cls-2" d="M454.2,46.6l-20.6-.2-.2,22.9H428s-9.8-.4-18.3,2.8a22.61,22.61,0,0,0-12.4,10.4c-.5,1-1,2.1-1.5,3.2-.1.2-.2.4-.5.4s-.4-.1-.4-.4v-15H375.4v78.9H396V114.1a47.15,47.15,0,0,1,1.1-10.3,24.93,24.93,0,0,1,2.1-5.6c3.7-6,11.8-11.9,29.2-12.1h4.8l-.4,46c0,3.9.6,7.1,1.9,9.4a13.81,13.81,0,0,0,5.2,5.5,23.21,23.21,0,0,0,7.8,2.7,59.5,59.5,0,0,0,9.7.8c2.1,0,4.4,0,6.7-.1,2-.1,3.8-.2,5.5-.4l.2-15.4-2.4.3c-1.2.1-2.4.1-3.7.1-4,0-6.7-.8-8.1-2.2s-2.1-4.1-2.1-8.1l.4-38.6h15.9V69.3H454.1l.1-22.7Z"/><polygon class="cls-2" points="664.5 68.6 662 78.1 659.3 68.6 655.1 68.6 655.1 81.6 657.7 81.6 657.7 71.6 660.6 81.6 663.1 81.6 666 71.6 666 81.6 668.7 81.6 668.7 68.6 664.5 68.6"/><polygon class="cls-2" points="642.6 70.7 646.1 70.7 646.1 81.6 648.9 81.6 648.9 70.7 652.4 70.7 652.4 68.6 642.6 68.6 642.6 70.7"/></g></g></svg>