<svg xmlns="http://www.w3.org/2000/svg" viewBox="0 0 880 230"><defs><style>.cls-1,.cls-2{fill:#0868b2;}.cls-1{fill-opacity:1;}.cls-3{fill:#7bb1e0;}.cls-4{fill:#5588c7;}.cls-5{fill:#272a67;}</style></defs><g id="Layer_2" data-name="Layer 2"><g id="svg8"><g id="layer1"><g id="g3951"><path id="path2996" class="cls-1" d="M367.4,63.2a108.12,108.12,0,0,0-17.7,2.2H319V209.1l37.6.6V161.4C427.2,182.1,448.9,60.7,367.4,63.2Zm3.7,30.4a18.2,18.2,0,1,1-18.2,18.2A18.22,18.22,0,0,1,371.1,93.6Z"/><path id="path2998" class="cls-1" d="M731,14.4V63.2c-85-15.6-93.2,121.8,3.7,95.5h32.9V14.4Zm100.4,46c-73-.1-78.6,122.8,18.9,100.4l29.7,1.1-1-99.2-27.6.6A73.79,73.79,0,0,0,831.4,60.4Zm-230.2.9a66.25,66.25,0,0,0-19,2.8L551.8,66v93.3h36.6V112.8c-.3-24.3,31.3-20.9,30.3,0v46.5h36.6v-53C651.9,78.4,628.2,61.4,601.2,61.3Zm-119,.6c-72.1.5-64,122.7,21.3,98.5h32.4V66H507.2A79.85,79.85,0,0,0,482.2,61.9Zm1.1,32.4a18.25,18.25,0,1,1-18.2,18.2A18.14,18.14,0,0,1,483.3,94.3Zm233.4,1.2a18.2,18.2,0,1,1-18.2,18.2A18.22,18.22,0,0,1,716.7,95.5Zm111.3,0a18.2,18.2,0,1,1-18.2,18.2A18.22,18.22,0,0,1,828,95.5Z"/><path id="path3004-1" class="cls-2" d="M65,32.6A32.5,32.5,0,1,1,32.5.1,32.5,32.5,0,0,1,65,32.6Z"/><path id="path3004" class="cls-3" d="M128.1,0A113.8,113.8,0,0,0,14.3,113.8v1H79.5c0-.7-.1-1.3-.1-2a49.19,49.19,0,0,1,48.7-49.2V0Z"/><path id="path3004-1-7" class="cls-2" d="M258.1,33.5A32.5,32.5,0,1,1,225.6,1,32.5,32.5,0,0,1,258.1,33.5Z"/><path id="path3004-5" class="cls-4" d="M128.3,0A113.8,113.8,0,0,1,242.1,113.8v1H176.9c0-.7.1-1.3.1-2a49.19,49.19,0,0,0-48.7-49.2V0Z"/><path id="path3004-51" class="cls-5" d="M128.1,230A113.8,113.8,0,0,1,14.3,116.2v-1H79.5c0,.7-.1,1.3-.1,2a49.19,49.19,0,0,0,48.7,49.2V230Z"/><path id="path3004-5-7" class="cls-2" d="M128.3,230A113.8,113.8,0,0,0,242.1,116.2v-1H176.9c0,.7.1,1.3.1,2a49.19,49.19,0,0,1-48.7,49.2V230Z"/></g></g></g></g></svg>